# Blender v2.80 (sub 41) OBJ File: ''
# www.blender.org
mtllib character.mtl
o Sphere_Sphere.002
v 0.000000 0.021928 -0.128343
v 0.000000 -0.053253 -0.053161
v 0.053161 0.075089 -0.128343
v 0.049115 0.021928 -0.118573
v 0.037591 -0.023140 -0.090752
v 0.020344 -0.053253 -0.049115
v 0.098229 0.075089 -0.098229
v 0.090752 0.021928 -0.090752
v 0.069458 -0.023140 -0.069459
v 0.037591 -0.053253 -0.037591
v 0.128342 0.075089 -0.053161
v 0.118573 0.021928 -0.049115
v 0.090752 -0.023140 -0.037591
v 0.049115 -0.053253 -0.020344
v 0.138917 0.075089 -0.000000
v 0.128342 0.021928 -0.000000
v 0.098229 -0.023140 -0.000000
v 0.053161 -0.053253 -0.000000
v 0.128342 0.075089 0.053161
v 0.118573 0.021928 0.049114
v 0.090752 -0.023140 0.037590
v 0.049115 -0.053253 0.020344
v 0.098229 0.075089 0.098229
v 0.090752 0.021928 0.090752
v 0.069458 -0.023140 0.069458
v 0.037591 -0.053253 0.037590
v 0.053161 0.075089 0.128342
v 0.049115 0.021928 0.118573
v 0.037591 -0.023140 0.090752
v 0.020344 -0.053253 0.049114
v -0.000000 0.075089 0.138917
v -0.000000 0.021928 0.128342
v -0.000000 -0.023140 0.098229
v -0.000000 -0.053253 0.053161
v -0.053161 0.075089 0.128342
v -0.049115 0.021928 0.118573
v -0.037591 -0.023140 0.090752
v -0.020344 -0.053253 0.049114
v -0.098229 0.075089 0.098229
v -0.090752 0.021928 0.090752
v -0.069458 -0.023140 0.069458
v -0.037591 -0.053253 0.037590
v -0.128342 0.075089 0.053161
v -0.118573 0.021928 0.049114
v -0.090752 -0.023140 0.037590
v -0.049115 -0.053253 0.020344
v -0.138917 0.075089 -0.000000
v -0.128342 0.021928 -0.000000
v -0.098229 -0.023140 -0.000000
v -0.053161 -0.053253 -0.000000
v -0.128342 0.075089 -0.053161
v -0.118573 0.021928 -0.049115
v -0.090752 -0.023140 -0.037591
v -0.049114 -0.053253 -0.020344
v -0.098229 0.075089 -0.098229
v -0.090752 0.021928 -0.090752
v -0.069458 -0.023140 -0.069459
v -0.037591 -0.053253 -0.037591
v -0.053161 0.075089 -0.128343
v -0.049114 0.021928 -0.118573
v -0.037591 -0.023140 -0.090752
v -0.020344 -0.053253 -0.049115
v 0.000000 0.075089 -0.138917
v 0.000000 -0.023140 -0.098229
v 0.000000 -0.063827 -0.000000
v 0.000000 0.545012 -0.098229
v 0.000000 0.499944 -0.128343
v 0.020344 0.575125 -0.049115
v 0.037591 0.545012 -0.090752
v 0.049115 0.499944 -0.118573
v 0.053161 0.446783 -0.128343
v 0.037591 0.575125 -0.037591
v 0.069458 0.545012 -0.069459
v 0.090752 0.499944 -0.090752
v 0.098229 0.446783 -0.098229
v 0.049115 0.575125 -0.020344
v 0.090752 0.545012 -0.037591
v 0.118573 0.499944 -0.049115
v 0.128342 0.446783 -0.053161
v 0.053161 0.575125 -0.000000
v 0.098229 0.545012 -0.000000
v 0.128342 0.499944 -0.000000
v 0.138917 0.446783 -0.000000
v 0.049115 0.575125 0.020344
v 0.090752 0.545012 0.037590
v 0.118573 0.499944 0.049114
v 0.128342 0.446783 0.053161
v 0.037591 0.575125 0.037590
v 0.069458 0.545012 0.069458
v 0.090752 0.499944 0.090752
v 0.098229 0.446783 0.098229
v 0.020344 0.575125 0.049114
v 0.037591 0.545012 0.090752
v 0.049115 0.499944 0.118573
v 0.053161 0.446783 0.128342
v 0.000000 0.575125 0.053161
v -0.000000 0.545012 0.098229
v -0.000000 0.499944 0.128342
v -0.000000 0.446783 0.138917
v -0.020344 0.575125 0.049114
v -0.037591 0.545012 0.090752
v -0.049115 0.499944 0.118573
v -0.053161 0.446783 0.128342
v -0.037591 0.575125 0.037590
v -0.069458 0.545012 0.069458
v -0.090752 0.499944 0.090752
v -0.098229 0.446783 0.098229
v -0.049115 0.575125 0.020344
v -0.090752 0.545012 0.037590
v -0.118573 0.499944 0.049114
v -0.128342 0.446783 0.053161
v -0.053161 0.575125 -0.000000
v -0.098229 0.545012 -0.000000
v -0.128342 0.499944 -0.000000
v -0.138917 0.446783 -0.000000
v -0.049114 0.575125 -0.020344
v -0.090752 0.545012 -0.037591
v -0.118573 0.499944 -0.049115
v -0.128342 0.446783 -0.053161
v -0.037591 0.575125 -0.037591
v -0.069458 0.545012 -0.069459
v -0.090752 0.499944 -0.090752
v -0.098229 0.446783 -0.098229
v -0.020344 0.575125 -0.049115
v -0.037591 0.545012 -0.090752
v -0.049114 0.499944 -0.118573
v -0.053161 0.446783 -0.128343
v 0.000000 0.585700 -0.000000
v 0.000000 0.575125 -0.053161
v 0.000000 0.446783 -0.138917
vt 0.602814 0.699346
vt 0.602814 0.711573
vt 0.596700 0.711573
vt 0.596700 0.699346
vt 0.602814 0.723800
vt 0.602814 0.736027
vt 0.596700 0.736027
vt 0.596700 0.723800
vt 0.599757 0.687119
vt 0.590587 0.711573
vt 0.590587 0.699346
vt 0.590587 0.736027
vt 0.590587 0.723800
vt 0.593644 0.687119
vt 0.587530 0.687119
vt 0.584474 0.699346
vt 0.584474 0.723800
vt 0.584474 0.711573
vt 0.584474 0.736027
vt 0.578360 0.723800
vt 0.578360 0.711573
vt 0.578360 0.699346
vt 0.578360 0.736027
vt 0.581417 0.687119
vt 0.572247 0.711573
vt 0.572247 0.699346
vt 0.572247 0.736027
vt 0.572247 0.723800
vt 0.575304 0.687119
vt 0.566133 0.736027
vt 0.566133 0.723800
vt 0.569190 0.687119
vt 0.566133 0.699346
vt 0.566133 0.711573
vt 0.563077 0.687119
vt 0.560020 0.699346
vt 0.560020 0.723800
vt 0.560020 0.711573
vt 0.560020 0.736027
vt 0.553907 0.711573
vt 0.553907 0.699346
vt 0.553907 0.736027
vt 0.553907 0.723800
vt 0.556963 0.687119
vt 0.547793 0.711573
vt 0.547793 0.699346
vt 0.547793 0.736027
vt 0.547793 0.723800
vt 0.550850 0.687119
vt 0.544737 0.687119
vt 0.541680 0.699346
vt 0.541680 0.723800
vt 0.541680 0.711573
vt 0.541680 0.736027
vt 0.538623 0.687119
vt 0.535567 0.699346
vt 0.535567 0.723800
vt 0.535567 0.711573
vt 0.535567 0.736027
vt 0.529453 0.711573
vt 0.529453 0.699346
vt 0.529453 0.736027
vt 0.529453 0.723800
vt 0.532510 0.687119
vt 0.627267 0.699346
vt 0.627267 0.711573
vt 0.621154 0.711573
vt 0.621154 0.699346
vt 0.627267 0.723800
vt 0.627267 0.736027
vt 0.621154 0.736027
vt 0.621154 0.723800
vt 0.584474 0.736027
vt 0.578360 0.736027
vt 0.627267 0.736027
vt 0.621154 0.736027
vt 0.624211 0.687119
vt 0.553907 0.736027
vt 0.547793 0.736027
vt 0.572247 0.736027
vt 0.615041 0.736027
vt 0.615041 0.736027
vt 0.618097 0.687119
vt 0.615041 0.699346
vt 0.615041 0.723800
vt 0.615041 0.711573
vt 0.560020 0.736027
vt 0.596700 0.736027
vt 0.590587 0.736027
vt 0.602814 0.736027
vt 0.608927 0.723800
vt 0.608927 0.711573
vt 0.535567 0.736027
vt 0.529453 0.736027
vt 0.608927 0.699346
vt 0.608927 0.736027
vt 0.541680 0.736027
vt 0.566133 0.736027
vt 0.611984 0.687119
vt 0.608927 0.736027
vt 0.605871 0.687119
vt 0.602814 0.748253
vt 0.596700 0.748253
vt 0.602814 0.760480
vt 0.602814 0.772707
vt 0.596700 0.772707
vt 0.596700 0.760480
vt 0.599757 0.784934
vt 0.590587 0.760480
vt 0.590587 0.748253
vt 0.593644 0.784934
vt 0.590587 0.772707
vt 0.587530 0.784934
vt 0.584474 0.772707
vt 0.584474 0.748253
vt 0.584474 0.760480
vt 0.578360 0.748253
vt 0.578360 0.772707
vt 0.578360 0.760480
vt 0.581417 0.784934
vt 0.572247 0.760480
vt 0.572247 0.748253
vt 0.575304 0.784934
vt 0.572247 0.772707
vt 0.566133 0.760480
vt 0.566133 0.748253
vt 0.569190 0.784934
vt 0.566133 0.772707
vt 0.560020 0.748253
vt 0.560020 0.772707
vt 0.560020 0.760480
vt 0.563077 0.784934
vt 0.553907 0.748253
vt 0.553907 0.772707
vt 0.553907 0.760480
vt 0.556963 0.784934
vt 0.547793 0.760480
vt 0.547793 0.748253
vt 0.550850 0.784934
vt 0.547793 0.772707
vt 0.541680 0.760480
vt 0.541680 0.748253
vt 0.544737 0.784934
vt 0.541680 0.772707
vt 0.535567 0.748253
vt 0.535567 0.772707
vt 0.535567 0.760480
vt 0.538623 0.784934
vt 0.529453 0.772707
vt 0.529453 0.760480
vt 0.529453 0.748253
vt 0.532510 0.784934
vt 0.627267 0.748253
vt 0.627267 0.760480
vt 0.621154 0.760480
vt 0.621154 0.748253
vt 0.627267 0.772707
vt 0.624211 0.784934
vt 0.621154 0.772707
vt 0.618097 0.784934
vt 0.615041 0.772707
vt 0.615041 0.748253
vt 0.615041 0.760480
vt 0.608927 0.748253
vt 0.608927 0.772707
vt 0.608927 0.760480
vt 0.611984 0.784934
vt 0.605871 0.784934
vn 0.0000 -0.9152 -0.4031
vn 0.0000 -0.6952 -0.7188
vn 0.2751 -0.6952 -0.6641
vn 0.1542 -0.9152 -0.3724
vn 0.0000 -0.3743 -0.9273
vn 0.0000 -0.0968 -0.9953
vn 0.3809 -0.0968 -0.9195
vn 0.3548 -0.3743 -0.8567
vn 0.0000 -1.0000 0.0000
vn 0.5083 -0.6952 -0.5083
vn 0.2850 -0.9152 -0.2850
vn 0.7038 -0.0968 -0.7038
vn 0.6557 -0.3743 -0.6557
vn 0.3724 -0.9152 -0.1542
vn 0.8567 -0.3743 -0.3548
vn 0.6641 -0.6952 -0.2751
vn 0.9195 -0.0968 -0.3809
vn 0.9273 -0.3743 0.0000
vn 0.7188 -0.6952 0.0000
vn 0.4031 -0.9152 0.0000
vn 0.9953 -0.0968 0.0000
vn 0.6641 -0.6952 0.2751
vn 0.3724 -0.9152 0.1542
vn 0.9195 -0.0968 0.3809
vn 0.8567 -0.3743 0.3548
vn 0.7038 -0.0968 0.7038
vn 0.6557 -0.3743 0.6557
vn 0.2850 -0.9152 0.2850
vn 0.5083 -0.6952 0.5083
vn 0.1542 -0.9152 0.3724
vn 0.3548 -0.3743 0.8567
vn 0.2751 -0.6952 0.6641
vn 0.3809 -0.0968 0.9195
vn 0.0000 -0.6952 0.7188
vn 0.0000 -0.9152 0.4031
vn 0.0000 -0.0968 0.9953
vn 0.0000 -0.3743 0.9273
vn -0.2751 -0.6952 0.6641
vn -0.1542 -0.9152 0.3724
vn -0.3809 -0.0968 0.9195
vn -0.3548 -0.3743 0.8567
vn -0.2850 -0.9152 0.2850
vn -0.6557 -0.3743 0.6557
vn -0.5083 -0.6952 0.5083
vn -0.7038 -0.0968 0.7038
vn -0.3724 -0.9152 0.1542
vn -0.8567 -0.3743 0.3548
vn -0.6641 -0.6952 0.2751
vn -0.9195 -0.0968 0.3809
vn -0.7188 -0.6952 0.0000
vn -0.4031 -0.9152 0.0000
vn -0.9953 -0.0968 0.0000
vn -0.9273 -0.3743 0.0000
vn -0.6641 -0.6952 -0.2751
vn -0.3724 -0.9152 -0.1542
vn -0.9195 -0.0968 -0.3809
vn -0.8567 -0.3743 -0.3548
vn 0.9195 0.0968 -0.3809
vn 0.9953 0.0968 0.0000
vn -0.9953 0.0968 0.0000
vn -0.9195 0.0968 -0.3809
vn 0.0000 0.0968 0.9953
vn -0.3809 0.0968 0.9195
vn 0.9195 0.0968 0.3809
vn -0.7038 -0.0968 -0.7038
vn -0.7038 0.0968 -0.7038
vn -0.2850 -0.9152 -0.2850
vn -0.6557 -0.3743 -0.6557
vn -0.5083 -0.6952 -0.5083
vn 0.3809 0.0968 0.9195
vn 0.3809 0.0968 -0.9195
vn 0.7038 0.0968 -0.7038
vn 0.0000 0.0968 -0.9953
vn -0.3548 -0.3743 -0.8567
vn -0.2751 -0.6952 -0.6641
vn -0.9195 0.0968 0.3809
vn -0.1542 -0.9152 -0.3724
vn -0.3809 -0.0968 -0.9195
vn -0.7038 0.0968 0.7038
vn 0.7038 0.0968 0.7038
vn -0.3809 0.0968 -0.9195
vn 0.0000 0.3743 -0.9273
vn 0.3548 0.3743 -0.8567
vn 0.0000 0.6952 -0.7188
vn 0.0000 0.9152 -0.4031
vn 0.1542 0.9152 -0.3724
vn 0.2751 0.6952 -0.6641
vn 0.0000 1.0000 0.0000
vn 0.5083 0.6952 -0.5083
vn 0.6557 0.3743 -0.6557
vn 0.2850 0.9152 -0.2850
vn 0.3724 0.9152 -0.1542
vn 0.8567 0.3743 -0.3548
vn 0.6641 0.6952 -0.2751
vn 0.9273 0.3743 0.0000
vn 0.4031 0.9152 0.0000
vn 0.7188 0.6952 0.0000
vn 0.6641 0.6952 0.2751
vn 0.8567 0.3743 0.3548
vn 0.3724 0.9152 0.1542
vn 0.5083 0.6952 0.5083
vn 0.6557 0.3743 0.6557
vn 0.2850 0.9152 0.2850
vn 0.3548 0.3743 0.8567
vn 0.1542 0.9152 0.3724
vn 0.2751 0.6952 0.6641
vn 0.0000 0.3743 0.9273
vn 0.0000 0.9152 0.4031
vn 0.0000 0.6952 0.7188
vn -0.2751 0.6952 0.6641
vn -0.3548 0.3743 0.8567
vn -0.1542 0.9152 0.3724
vn -0.5083 0.6952 0.5083
vn -0.6557 0.3743 0.6557
vn -0.2850 0.9152 0.2850
vn -0.8567 0.3743 0.3548
vn -0.3724 0.9152 0.1542
vn -0.6641 0.6952 0.2751
vn -0.4031 0.9152 0.0000
vn -0.7188 0.6952 0.0000
vn -0.9273 0.3743 0.0000
vn -0.6641 0.6952 -0.2751
vn -0.8567 0.3743 -0.3548
vn -0.3724 0.9152 -0.1542
vn -0.2850 0.9152 -0.2850
vn -0.6557 0.3743 -0.6557
vn -0.5083 0.6952 -0.5083
vn -0.3548 0.3743 -0.8567
vn -0.1542 0.9152 -0.3724
vn -0.2751 0.6952 -0.6641
usemtl None
s 1
f 2/1/1 64/2/2 5/3/3 6/4/4
f 1/5/5 63/6/6 3/7/7 4/8/8
f 65/9/9 2/1/1 6/4/4
f 64/2/2 1/5/5 4/8/8 5/3/3
f 6/4/4 5/3/3 9/10/10 10/11/11
f 4/8/8 3/7/7 7/12/12 8/13/13
f 65/14/9 6/4/4 10/11/11
f 5/3/3 4/8/8 8/13/13 9/10/10
f 65/15/9 10/11/11 14/16/14
f 9/10/10 8/13/13 12/17/15 13/18/16
f 10/11/11 9/10/10 13/18/16 14/16/14
f 8/13/13 7/12/12 11/19/17 12/17/15
f 13/18/16 12/17/15 16/20/18 17/21/19
f 14/16/14 13/18/16 17/21/19 18/22/20
f 12/17/15 11/19/17 15/23/21 16/20/18
f 65/24/9 14/16/14 18/22/20
f 18/22/20 17/21/19 21/25/22 22/26/23
f 16/20/18 15/23/21 19/27/24 20/28/25
f 65/29/9 18/22/20 22/26/23
f 17/21/19 16/20/18 20/28/25 21/25/22
f 20/28/25 19/27/24 23/30/26 24/31/27
f 65/32/9 22/26/23 26/33/28
f 21/25/22 20/28/25 24/31/27 25/34/29
f 22/26/23 21/25/22 25/34/29 26/33/28
f 65/35/9 26/33/28 30/36/30
f 25/34/29 24/31/27 28/37/31 29/38/32
f 26/33/28 25/34/29 29/38/32 30/36/30
f 24/31/27 23/30/26 27/39/33 28/37/31
f 30/36/30 29/38/32 33/40/34 34/41/35
f 28/37/31 27/39/33 31/42/36 32/43/37
f 65/44/9 30/36/30 34/41/35
f 29/38/32 28/37/31 32/43/37 33/40/34
f 34/41/35 33/40/34 37/45/38 38/46/39
f 32/43/37 31/42/36 35/47/40 36/48/41
f 65/49/9 34/41/35 38/46/39
f 33/40/34 32/43/37 36/48/41 37/45/38
f 65/50/9 38/46/39 42/51/42
f 37/45/38 36/48/41 40/52/43 41/53/44
f 38/46/39 37/45/38 41/53/44 42/51/42
f 36/48/41 35/47/40 39/54/45 40/52/43
f 65/55/9 42/51/42 46/56/46
f 41/53/44 40/52/43 44/57/47 45/58/48
f 42/51/42 41/53/44 45/58/48 46/56/46
f 40/52/43 39/54/45 43/59/49 44/57/47
f 46/56/46 45/58/48 49/60/50 50/61/51
f 44/57/47 43/59/49 47/62/52 48/63/53
f 65/64/9 46/56/46 50/61/51
f 45/58/48 44/57/47 48/63/53 49/60/50
f 50/65/51 49/66/50 53/67/54 54/68/55
f 48/69/53 47/70/52 51/71/56 52/72/57
f 15/23/21 11/19/17 79/73/58 83/74/59
f 51/71/56 47/70/52 115/75/60 119/76/61
f 65/77/9 50/65/51 54/68/55
f 49/66/50 48/69/53 52/72/57 53/67/54
f 35/47/40 31/42/36 99/78/62 103/79/63
f 19/27/24 15/23/21 83/74/59 87/80/64
f 55/81/65 51/71/56 119/76/61 123/82/66
f 65/83/9 54/68/55 58/84/67
f 53/67/54 52/72/57 56/85/68 57/86/69
f 31/42/36 27/39/33 95/87/70 99/78/62
f 7/12/12 3/7/7 71/88/71 75/89/72
f 54/68/55 53/67/54 57/86/69 58/84/67
f 52/72/57 51/71/56 55/81/65 56/85/68
f 3/7/7 63/6/6 130/90/73 71/88/71
f 57/86/69 56/85/68 60/91/74 61/92/75
f 11/19/17 7/12/12 75/89/72 79/73/58
f 47/62/52 43/59/49 111/93/76 115/94/60
f 58/84/67 57/86/69 61/92/75 62/95/77
f 56/85/68 55/81/65 59/96/78 60/91/74
f 43/59/49 39/54/45 107/97/79 111/93/76
f 27/39/33 23/30/26 91/98/80 95/87/70
f 65/99/9 58/84/67 62/95/77
f 62/95/77 61/92/75 64/2/2 2/1/1
f 60/91/74 59/96/78 63/6/6 1/5/5
f 23/30/26 19/27/24 87/80/64 91/98/80
f 59/96/78 55/81/65 123/82/66 127/100/81
f 65/101/9 62/95/77 2/1/1
f 61/92/75 60/91/74 1/5/5 64/2/2
f 63/6/6 59/96/78 127/100/81 130/90/73
f 39/54/45 35/47/40 103/79/63 107/97/79
f 130/90/73 67/102/82 70/103/83 71/88/71
f 66/104/84 129/105/85 68/106/86 69/107/87
f 67/102/82 66/104/84 69/107/87 70/103/83
f 129/105/85 128/108/88 68/106/86
f 70/103/83 69/107/87 73/109/89 74/110/90
f 68/106/86 128/111/88 72/112/91
f 71/88/71 70/103/83 74/110/90 75/89/72
f 69/107/87 68/106/86 72/112/91 73/109/89
f 72/112/91 128/113/88 76/114/92
f 75/89/72 74/110/90 78/115/93 79/73/58
f 73/109/89 72/112/91 76/114/92 77/116/94
f 74/110/90 73/109/89 77/116/94 78/115/93
f 79/73/58 78/115/93 82/117/95 83/74/59
f 77/116/94 76/114/92 80/118/96 81/119/97
f 78/115/93 77/116/94 81/119/97 82/117/95
f 76/114/92 128/120/88 80/118/96
f 82/117/95 81/119/97 85/121/98 86/122/99
f 80/118/96 128/123/88 84/124/100
f 83/74/59 82/117/95 86/122/99 87/80/64
f 81/119/97 80/118/96 84/124/100 85/121/98
f 86/122/99 85/121/98 89/125/101 90/126/102
f 84/124/100 128/127/88 88/128/103
f 87/80/64 86/122/99 90/126/102 91/98/80
f 85/121/98 84/124/100 88/128/103 89/125/101
f 91/98/80 90/126/102 94/129/104 95/87/70
f 89/125/101 88/128/103 92/130/105 93/131/106
f 90/126/102 89/125/101 93/131/106 94/129/104
f 88/128/103 128/132/88 92/130/105
f 95/87/70 94/129/104 98/133/107 99/78/62
f 93/131/106 92/130/105 96/134/108 97/135/109
f 94/129/104 93/131/106 97/135/109 98/133/107
f 92/130/105 128/136/88 96/134/108
f 98/133/107 97/135/109 101/137/110 102/138/111
f 96/134/108 128/139/88 100/140/112
f 99/78/62 98/133/107 102/138/111 103/79/63
f 97/135/109 96/134/108 100/140/112 101/137/110
f 102/138/111 101/137/110 105/141/113 106/142/114
f 100/140/112 128/143/88 104/144/115
f 103/79/63 102/138/111 106/142/114 107/97/79
f 101/137/110 100/140/112 104/144/115 105/141/113
f 107/97/79 106/142/114 110/145/116 111/93/76
f 105/141/113 104/144/115 108/146/117 109/147/118
f 106/142/114 105/141/113 109/147/118 110/145/116
f 104/144/115 128/148/88 108/146/117
f 109/147/118 108/146/117 112/149/119 113/150/120
f 110/145/116 109/147/118 113/150/120 114/151/121
f 108/146/117 128/152/88 112/149/119
f 111/93/76 110/145/116 114/151/121 115/94/60
f 114/153/121 113/154/120 117/155/122 118/156/123
f 112/157/119 128/158/88 116/159/124
f 115/75/60 114/153/121 118/156/123 119/76/61
f 113/154/120 112/157/119 116/159/124 117/155/122
f 116/159/124 128/160/88 120/161/125
f 119/76/61 118/156/123 122/162/126 123/82/66
f 117/155/122 116/159/124 120/161/125 121/163/127
f 118/156/123 117/155/122 121/163/127 122/162/126
f 123/82/66 122/162/126 126/164/128 127/100/81
f 121/163/127 120/161/125 124/165/129 125/166/130
f 122/162/126 121/163/127 125/166/130 126/164/128
f 120/161/125 128/167/88 124/165/129
f 126/164/128 125/166/130 66/104/84 67/102/82
f 124/165/129 128/168/88 129/105/85
f 127/100/81 126/164/128 67/102/82 130/90/73
f 125/166/130 124/165/129 129/105/85 66/104/84
