# Blender v2.80 (sub 41) OBJ File: ''
# www.blender.org
mtllib collider_linkerT.mtl
o Plane
v -0.375000 -0.375000 0.375000
v 0.375000 -0.375000 0.375000
v 0.500000 -0.375000 0.375000
v 0.500000 -0.375000 -0.375000
v -0.500000 -0.375000 0.375000
v -0.500000 -0.125000 0.375000
v -0.375000 -0.125000 0.375000
v -0.375000 -0.375000 0.500000
v 0.375000 -0.375000 0.500000
v -0.500000 -0.125000 0.500000
v -0.375000 -0.125000 0.500000
v 0.375000 -0.125000 0.500000
v 0.500000 -0.125000 0.500000
v 0.500000 -0.125000 0.375000
v 0.375000 -0.125000 0.375000
v 0.500000 -0.125000 -0.375000
v 0.500000 -0.125000 -0.500000
v -0.500000 -0.125000 -0.500000
v -0.500000 -0.125000 -0.375000
v 0.500000 -0.500000 -0.500000
v -0.500000 -0.500000 -0.500000
v -0.500000 -0.375000 -0.375000
vt 0.125000 0.125000
vt 0.875000 0.125000
vt 1.000000 0.125000
vt 1.000000 0.875000
vt 0.000000 0.125000
vt 0.000000 0.125000
vt 0.125000 0.125000
vt 0.125000 0.000000
vt 0.875000 0.000000
vt 0.000000 0.000000
vt 0.125000 0.000000
vt 0.875000 0.000000
vt 1.000000 0.000000
vt 1.000000 0.125000
vt 0.875000 0.125000
vt 1.000000 0.875000
vt 1.000000 1.000000
vt 0.000000 1.000000
vt 0.000000 0.875000
vt 0.000000 0.000000
vt 0.000000 0.000000
vt 0.000000 0.000000
vt 0.000000 0.000000
vt 0.000000 0.875000
vn 0.0000 1.0000 0.0000
vn 0.0000 0.0000 -1.0000
vn -1.0000 0.0000 0.0000
vn 1.0000 0.0000 0.0000
vn 0.0000 -0.0000 1.0000
usemtl None.002
s 1
f 1/1/1 2/2/1 3/3/1 4/4/1
f 1/1/2 5/5/2 6/6/2 7/7/2
f 8/8/1 9/9/1 2/2/1 1/1/1
f 10/10/1 11/11/1 7/7/1 6/6/1
f 12/12/1 13/13/1 14/14/1 15/15/1
f 16/16/1 17/17/1 18/18/1 19/19/1
f 2/2/3 9/9/3 12/12/3 15/15/3
f 20/20/2 21/21/2 18/22/2 17/23/2
f 3/3/2 2/2/2 15/15/2 14/14/2
f 1/1/1 4/4/1 22/24/1 5/5/1
f 8/8/4 1/1/4 7/7/4 11/11/4
f 4/4/5 16/16/5 19/19/5 22/24/5
