# Blender v2.80 (sub 41) OBJ File: 'stairs.blend'
# www.blender.org
mtllib collider_passage.mtl
o Plane_Plane.002
v -0.500000 -0.500000 0.500000
v 0.500000 -0.500000 0.500000
v -0.500000 -0.500000 -0.500000
v 0.500000 -0.500000 -0.500000
v -0.375000 -0.375000 0.500000
v 0.375000 -0.375000 0.500000
v 0.375000 -0.375000 -0.500000
v -0.375000 -0.375000 -0.500000
v -0.375000 -0.125000 -0.500000
v 0.375000 -0.125000 -0.500000
v 0.500000 -0.125000 -0.500000
v 0.500000 -0.125000 0.500000
v 0.375000 -0.125000 0.500000
v -0.375000 -0.125000 0.500000
v -0.500000 -0.125000 0.500000
v -0.500000 -0.125000 -0.500000
vt 1.000000 0.000000
vt 1.000000 1.000000
vt 0.875000 1.000000
vt 0.875000 0.000000
vt 0.000000 0.000000
vt 0.000000 0.000000
vt 0.000000 0.000000
vt 0.000000 0.000000
vt 0.125000 0.000000
vt 0.875000 0.000000
vt 0.875000 1.000000
vt 0.125000 1.000000
vt 0.000000 0.000000
vt 0.000000 0.000000
vt 0.000000 0.000000
vt 0.000000 0.000000
vt 0.125000 1.000000
vt 0.000000 1.000000
vt 0.125000 0.000000
vn 0.0000 1.0000 0.0000
vn 1.0000 0.0000 0.0000
vn -1.0000 0.0000 0.0000
vn 0.0000 -1.0000 0.0000
usemtl None
s off
f 12/1/1 11/2/1 10/3/1 13/4/1
f 2/5/2 4/6/2 11/7/2 12/8/2
f 5/9/1 6/10/1 7/11/1 8/12/1
f 7/11/3 6/10/3 13/4/3 10/3/3
f 3/13/3 1/14/3 15/15/3 16/16/3
f 9/17/1 16/18/1 15/15/1 14/19/1
f 5/9/2 8/12/2 9/17/2 14/19/2
f 3/13/4 4/6/4 2/5/4 1/14/4
