# Blender v2.80 (sub 41) OBJ File: 'stairs.blend'
# www.blender.org
mtllib collider_linkerL.mtl
o Plane_Plane.004
v -0.500000 -0.500000 0.500000
v 0.500000 -0.500000 0.500000
v -0.500000 -0.125000 0.500000
v -0.500000 -0.125000 -0.500000
v 0.500000 -0.375000 0.375000
v -0.375000 -0.375000 -0.500000
v -0.375000 -0.375000 0.375000
v 0.500000 -0.500000 -0.500000
v -0.500000 -0.500000 -0.500000
v -0.375000 -0.125000 0.375000
v -0.375000 -0.125000 -0.500000
v 0.500000 -0.125000 0.375000
v 0.500000 -0.125000 0.500000
v 0.500000 -0.375000 -0.375000
v 0.375000 -0.375000 -0.500000
v 0.375000 -0.375000 -0.375000
v 0.500000 -0.125000 -0.375000
v 0.500000 -0.125000 -0.500000
v 0.375000 -0.125000 -0.500000
v 0.375000 -0.125000 -0.375000
vt 0.125000 0.125000
vt 0.890625 0.890625
vt 0.890625 1.000000
vt 0.125000 1.000000
vt 0.000000 0.000000
vt 0.000000 0.000000
vt 0.000000 0.000000
vt 0.000000 0.000000
vt 0.125000 1.000000
vt 0.125000 0.125000
vt 0.000000 0.000000
vt 0.000000 0.000000
vt 0.000000 1.000000
vt 1.000000 0.125000
vt 1.000000 0.890625
vt 1.000000 0.000000
vt 1.000000 0.125000
vt 0.000000 0.000000
vt 0.890625 0.890625
vt 1.000000 0.890625
vt 1.000000 1.000000
vt 0.890625 1.000000
vn 0.0000 1.0000 0.0000
vn 0.0000 -1.0000 0.0000
vn 1.0000 0.0000 0.0000
vn 0.0000 0.0000 1.0000
vn -0.0000 0.0000 -1.0000
vn -1.0000 0.0000 0.0000
usemtl None
s off
f 7/1/1 16/2/1 15/3/1 6/4/1
f 2/5/2 1/6/2 9/7/2 8/8/2
f 7/1/3 6/4/3 11/9/3 10/10/3
f 1/6/4 2/5/4 13/11/4 3/12/4
f 3/12/1 10/10/1 11/9/1 4/13/1
f 16/2/1 7/1/1 5/14/1 14/15/1
f 3/12/1 13/16/1 12/17/1 10/10/1
f 5/14/5 7/1/5 10/10/5 12/17/5
f 1/6/6 3/12/6 4/18/6 9/7/6
f 20/19/1 17/20/1 18/21/1 19/22/1
f 16/2/4 14/15/4 17/20/4 20/19/4
f 15/3/6 16/2/6 20/19/6 19/22/6
