# Blender v2.80 (sub 41) OBJ File: ''
# www.blender.org
mtllib collider_floorT.mtl
o Plane_Plane.001
v -0.500000 -0.375000 -0.375000
v 0.500000 -0.375000 -0.375000
v 0.500000 -0.125000 -0.375000
v -0.500000 -0.125000 -0.375000
v 0.500000 -0.375000 0.500000
v -0.500000 -0.375000 0.500000
v 0.500000 -0.125000 -0.500000
v -0.500000 -0.125000 -0.500000
v 0.500000 -0.500000 -0.500000
v -0.500000 -0.500000 -0.500000
vt 0.000000 0.875000
vt 1.000000 0.875000
vt 1.000000 0.875000
vt 0.000000 0.875000
vt 1.000000 0.000000
vt 0.000000 0.000000
vt 1.000000 1.000000
vt 0.000000 1.000000
vt 0.000000 0.000000
vt 0.000000 0.000000
vt 0.000000 0.000000
vt 0.000000 0.000000
vn 0.0000 -0.0000 1.0000
vn 0.0000 1.0000 0.0000
vn 0.0000 0.0000 -1.0000
usemtl None.001
s 1
f 1/1/1 2/2/1 3/3/1 4/4/1
f 5/5/2 2/2/2 1/1/2 6/6/2
f 4/4/2 3/3/2 7/7/2 8/8/2
f 7/9/3 9/10/3 10/11/3 8/12/3
