# Blender v2.80 (sub 41) OBJ File: 'stairs.blend'
# www.blender.org
mtllib collider_stairstop.mtl
o Cube.015_Cube.019
v -0.500000 -0.125000 -0.500000
v 0.500000 -0.125000 -0.500000
v 0.375000 -0.500000 -0.375000
v -0.500000 -0.375000 -0.500000
v -0.500000 -0.500000 -0.500000
v -0.375000 -0.125000 -0.500000
v 0.375000 -0.125000 -0.500000
v 0.500000 -0.375000 -0.500000
v 0.500000 -0.500000 -0.500000
v -0.375000 -0.500000 -0.375000
v 0.375000 -0.500000 -0.125000
v -0.375000 -0.375000 -0.500000
v -0.375000 -0.500000 -0.125000
v 0.375000 -0.375000 -0.500000
v 0.500000 -0.500000 -0.125000
v -0.500000 -0.500000 -0.125000
vt 0.562500 0.250000
vt 0.531250 0.250000
vt 0.531250 0.156250
vt 0.625000 0.250000
vt 0.562500 0.468750
vt 0.562500 0.281250
vt 0.562500 0.281250
vt 0.562500 0.468750
vt 0.531250 0.468750
vt 0.625000 0.468750
vt 0.531250 0.500000
vt 0.625000 0.500000
vt 0.625000 0.281250
vt 0.531250 0.281250
vt 0.531250 0.250000
vt 0.531250 0.593750
vt 0.531250 0.500000
vt 0.562500 0.500000
vn -1.0000 0.0000 0.0000
vn 0.0000 0.7071 0.7071
vn 1.0000 0.0000 0.0000
usemtl None
s off
f 4/1/1 5/2/1 16/3/1 1/4/1
f 14/5/2 12/6/2 10/7/2 3/8/2
f 3/8/1 11/9/1 7/10/1 14/5/1
f 7/10/2 11/9/2 15/11/2 2/12/2
f 10/7/3 12/6/3 6/13/3 13/14/3
f 6/13/2 1/4/2 16/15/2 13/14/2
f 15/16/3 9/17/3 8/18/3 2/12/3
