# Blender v2.80 (sub 41) OBJ File: 'stairs.blend'
# www.blender.org
mtllib collider_floorL.mtl
o Plane_Plane.004
v -0.500000 -0.500000 0.500000
v 0.500000 -0.500000 0.500000
v -0.500000 -0.125000 0.500000
v -0.500000 -0.125000 -0.500000
v 0.500000 -0.375000 0.375000
v -0.375000 -0.375000 -0.500000
v -0.375000 -0.375000 0.375000
v -0.500000 -0.500000 -0.500000
v -0.375000 -0.125000 0.375000
v -0.375000 -0.125000 -0.500000
v 0.500000 -0.125000 0.375000
v 0.500000 -0.125000 0.500000
v 0.500000 -0.375000 -0.500000
vt 0.125000 0.125000
vt 0.125000 1.000000
vt 0.125000 1.000000
vt 0.125000 0.125000
vt 0.000000 0.000000
vt 0.000000 0.000000
vt 0.000000 0.000000
vt 0.000000 0.000000
vt 0.000000 1.000000
vt 1.000000 0.000000
vt 1.000000 0.125000
vt 1.000000 0.125000
vt 0.000000 0.000000
vt 0.000000 0.000000
vt 0.890625 1.000000
vn 1.0000 0.0000 0.0000
vn 0.0000 0.0000 1.0000
vn 0.0000 1.0000 0.0000
vn -0.0000 0.0000 -1.0000
vn -1.0000 0.0000 0.0000
usemtl None
s off
f 7/1/1 6/2/1 10/3/1 9/4/1
f 1/5/2 2/6/2 12/7/2 3/8/2
f 3/8/3 9/4/3 10/3/3 4/9/3
f 3/8/3 12/10/3 11/11/3 9/4/3
f 5/12/4 7/1/4 9/4/4 11/11/4
f 1/5/5 3/8/5 4/13/5 8/14/5
f 7/1/3 5/12/3 13/15/3 6/2/3
