# Blender v2.80 (sub 41) OBJ File: 'stairs.blend'
# www.blender.org
mtllib collider_linker.mtl
o Cube.015
v -0.500000 -0.375000 -0.500000
v 0.500000 -0.375000 -0.500000
v -0.500000 -0.375000 0.375000
v 0.500000 -0.375000 0.375000
v 0.375000 -0.375000 0.500000
v -0.375000 -0.375000 0.500000
v 0.375000 -0.375000 0.375000
v -0.375000 -0.375000 0.375000
v -0.500000 -0.125000 0.500000
v -0.500000 -0.125000 0.375000
v 0.500000 -0.125000 0.375000
v 0.500000 -0.125000 0.500000
v 0.375000 -0.125000 0.500000
v -0.375000 -0.125000 0.500000
v -0.375000 -0.125000 0.375000
v 0.375000 -0.125000 0.375000
vt 0.625000 0.500000
vt 0.875000 0.500000
vt 0.875000 0.718750
vt 0.843750 0.718750
vt 0.656250 0.718750
vt 0.625000 0.718750
vt 0.843750 0.750000
vt 0.843750 0.718750
vt 0.843750 0.750000
vt 0.656250 0.750000
vt 0.875000 0.718750
vt 0.875000 0.750000
vt 0.625000 0.718750
vt 0.656250 0.718750
vt 0.656250 0.750000
vt 0.625000 0.750000
vn 0.0000 1.0000 -0.0000
vn 1.0000 0.0000 -0.0000
vn 0.0000 0.0000 -1.0000
vn -1.0000 0.0000 0.0000
usemtl None
s off
f 2/1/1 1/2/1 3/3/1 8/4/1
f 7/5/1 4/6/1 2/1/1 8/4/1
f 6/7/2 8/4/2 15/8/2 14/9/2
f 8/4/1 6/7/1 5/10/1 7/5/1
f 15/8/1 10/11/1 9/12/1 14/9/1
f 11/13/1 16/14/1 13/15/1 12/16/1
f 4/6/3 7/5/3 16/14/3 11/13/3
f 8/4/3 3/3/3 10/11/3 15/8/3
f 7/5/4 5/10/4 13/15/4 16/14/4
