# Blender v2.80 (sub 41) OBJ File: 'stairs.blend'
# www.blender.org
mtllib floor_L.mtl
o Cube.005
v -0.500000 -0.500000 -0.500000
v -0.500000 -0.500000 0.500000
v 0.500000 -0.500000 0.500000
v -0.500000 -0.500000 -0.375000
v -0.500000 -0.500000 -0.125000
v -0.500000 -0.500000 0.125000
v -0.500000 -0.500000 0.375000
v -0.500000 -0.125000 0.500000
v -0.500000 -0.125000 -0.500000
v -0.500000 -0.250000 -0.500000
v -0.500000 -0.375000 -0.500000
v 0.500000 -0.125000 0.500000
v 0.500000 -0.250000 0.500000
v 0.500000 -0.375000 0.500000
v 0.375000 -0.375000 -0.500000
v -0.125000 -0.500000 0.500000
v 0.125000 -0.500000 0.500000
v 0.375000 -0.500000 0.500000
v -0.500000 -0.250000 0.500000
v -0.500000 -0.375000 0.500000
v -0.500000 -0.375000 0.375000
v -0.500000 -0.250000 0.375000
v -0.500000 -0.125000 0.375000
v -0.500000 -0.375000 0.125000
v -0.500000 -0.250000 0.125000
v -0.500000 -0.125000 0.125000
v -0.500000 -0.375000 -0.125000
v -0.500000 -0.250000 -0.125000
v -0.500000 -0.125000 -0.125000
v -0.500000 -0.375000 -0.375000
v -0.500000 -0.250000 -0.375000
v -0.500000 -0.125000 -0.375000
v 0.375000 -0.375000 0.500000
v 0.375000 -0.250000 0.500000
v 0.375000 -0.125000 0.500000
v 0.125000 -0.375000 0.500000
v 0.125000 -0.250000 0.500000
v 0.125000 -0.125000 0.500000
v -0.125000 -0.375000 0.500000
v -0.125000 -0.250000 0.500000
v -0.125000 -0.125000 0.500000
v 0.375000 -0.500000 -0.500000
v 0.375000 -0.500000 -0.375000
v -0.375000 -0.500000 -0.500000
v -0.375000 -0.500000 -0.375000
v -0.375000 -0.500000 -0.125000
v -0.375000 -0.500000 0.125000
v -0.375000 -0.500000 0.375000
v -0.375000 -0.125000 -0.500000
v -0.375000 -0.250000 -0.500000
v -0.375000 -0.375000 -0.500000
v -0.375000 -0.250000 0.500000
v -0.375000 -0.375000 0.500000
v -0.375000 -0.500000 0.500000
v -0.375000 -0.375000 0.375000
v -0.375000 -0.250000 0.375000
v -0.375000 -0.125000 0.375000
v -0.375000 -0.375000 0.125000
v -0.375000 -0.250000 0.125000
v -0.375000 -0.125000 0.125000
v -0.375000 -0.375000 -0.125000
v -0.375000 -0.250000 -0.125000
v -0.375000 -0.125000 -0.125000
v -0.375000 -0.375000 -0.375000
v -0.375000 -0.250000 -0.375000
v -0.375000 -0.125000 -0.375000
v -0.375000 -0.125000 0.500000
v 0.500000 -0.125000 0.375000
v 0.500000 -0.250000 0.375000
v 0.500000 -0.500000 0.375000
v 0.375000 -0.500000 -0.125000
v -0.125000 -0.500000 0.375000
v 0.375000 -0.250000 0.375000
v 0.375000 -0.125000 0.375000
v 0.125000 -0.250000 0.375000
v 0.125000 -0.125000 0.375000
v -0.125000 -0.250000 0.375000
v -0.125000 -0.125000 0.375000
v 0.375000 -0.500000 0.375000
v 0.375000 -0.500000 0.125000
v 0.375000 -0.375000 0.375000
v 0.375000 -0.375000 0.125000
v 0.375000 -0.375000 -0.125000
v 0.375000 -0.375000 -0.375000
v -0.125000 -0.375000 -0.125000
v -0.125000 -0.500000 -0.125000
v -0.125000 -0.500000 0.125000
v -0.125000 -0.375000 0.375000
v -0.125000 -0.375000 0.125000
v -0.125000 -0.500000 -0.375000
v -0.125000 -0.500000 -0.500000
v -0.125000 -0.375000 -0.500000
v -0.125000 -0.375000 -0.375000
v 0.125000 -0.375000 -0.125000
v 0.125000 -0.500000 0.125000
v 0.125000 -0.375000 0.125000
v 0.125000 -0.500000 -0.500000
v 0.125000 -0.375000 -0.375000
v 0.125000 -0.500000 0.375000
v 0.125000 -0.500000 -0.125000
v 0.125000 -0.375000 0.375000
v 0.125000 -0.500000 -0.375000
v 0.125000 -0.375000 -0.500000
v 0.500000 -0.375000 0.375000
v 0.500000 -0.500000 0.125000
v 0.500000 -0.375000 0.125000
v 0.500000 -0.500000 -0.125000
v 0.500000 -0.375000 -0.125000
v 0.500000 -0.500000 -0.375000
v 0.500000 -0.375000 -0.375000
v 0.500000 -0.375000 -0.500000
v 0.500000 -0.500000 -0.500000
vt 0.894772 0.945618
vt 0.883984 0.945618
vt 0.883984 0.951012
vt 0.894772 0.951012
vt 0.894772 0.940223
vt 0.883984 0.940223
vt 0.873195 0.945618
vt 0.873195 0.951012
vt 0.169555 0.599163
vt 0.177463 0.599163
vt 0.177463 0.583347
vt 0.169555 0.583347
vt 0.169555 0.638703
vt 0.177463 0.638703
vt 0.177463 0.630795
vt 0.169555 0.630795
vt 0.910955 0.951012
vt 0.910955 0.945618
vt 0.905561 0.945618
vt 0.905561 0.951012
vt 0.910955 0.940223
vt 0.905561 0.940223
vt 0.873195 0.940223
vt 0.867801 0.940223
vt 0.867801 0.945618
vt 0.867801 0.951012
vt 0.177463 0.575439
vt 0.169555 0.575439
vt 0.169555 0.614979
vt 0.177463 0.614979
vt 0.662564 0.938710
vt 0.673353 0.938710
vt 0.673353 0.933316
vt 0.662564 0.933316
vt 0.684141 0.938710
vt 0.684141 0.933316
vt 0.673353 0.944104
vt 0.684141 0.944104
vt 0.694930 0.938710
vt 0.694930 0.933316
vt 0.145831 0.638703
vt 0.145831 0.646611
vt 0.161647 0.646611
vt 0.161647 0.638703
vt 0.106291 0.638703
vt 0.106291 0.646611
vt 0.114199 0.646611
vt 0.114199 0.638703
vt 0.657170 0.933316
vt 0.657170 0.938710
vt 0.657170 0.944104
vt 0.662564 0.944104
vt 0.755326 0.855886
vt 0.755326 0.850492
vt 0.744538 0.850492
vt 0.744538 0.855886
vt 0.766115 0.861281
vt 0.766115 0.855886
vt 0.755326 0.861281
vt 0.766115 0.850492
vt 0.130015 0.638703
vt 0.130015 0.646611
vt 0.130015 0.583347
vt 0.114199 0.583347
vt 0.114199 0.599163
vt 0.130015 0.599163
vt 0.845354 0.902933
vt 0.839959 0.902933
vt 0.839959 0.913722
vt 0.845354 0.913722
vt 0.845354 0.892145
vt 0.839959 0.892145
vt 0.680735 0.950491
vt 0.680735 0.945097
vt 0.675341 0.945097
vt 0.675341 0.950491
vt 0.739143 0.855886
vt 0.739143 0.861281
vt 0.744538 0.861281
vt 0.739143 0.850492
vt 0.282199 0.366371
vt 0.259923 0.366371
vt 0.259923 0.388647
vt 0.282199 0.388647
vt 0.114199 0.614979
vt 0.130015 0.614979
vt 0.282199 0.344095
vt 0.259923 0.344095
vt 0.776904 0.855886
vt 0.776904 0.850492
vt 0.863056 0.966529
vt 0.863056 0.971923
vt 0.868451 0.971923
vt 0.868451 0.966529
vt 0.161647 0.630795
vt 0.836084 0.966529
vt 0.836084 0.971923
vt 0.841479 0.971923
vt 0.841479 0.966529
vt 0.873845 0.971923
vt 0.873845 0.966529
vt 0.809113 0.966529
vt 0.809113 0.971923
vt 0.819901 0.971923
vt 0.819901 0.966529
vt 0.700324 0.938710
vt 0.694930 0.944104
vt 0.700324 0.944104
vt 0.169555 0.567531
vt 0.161647 0.567531
vt 0.161647 0.575439
vt 0.852267 0.971923
vt 0.852267 0.966529
vt 0.825296 0.971923
vt 0.825296 0.966529
vt 0.161647 0.583347
vt 0.700324 0.933316
vt 0.161647 0.599163
vt 0.169555 0.646611
vt 0.857662 0.971923
vt 0.857662 0.966529
vt 0.161647 0.614979
vt 0.669947 0.950491
vt 0.669947 0.945097
vt 0.803718 0.966529
vt 0.803718 0.971923
vt 0.850748 0.902933
vt 0.850748 0.913722
vt 0.839959 0.924511
vt 0.845354 0.924511
vt 0.259923 0.410923
vt 0.248785 0.410923
vt 0.248785 0.422061
vt 0.259923 0.422061
vt 0.839959 0.886750
vt 0.845354 0.886750
vt 0.850748 0.892145
vt 0.850748 0.886750
vt 0.248785 0.344095
vt 0.248785 0.366371
vt 0.114199 0.575439
vt 0.106291 0.575439
vt 0.106291 0.583347
vt 0.145831 0.630795
vt 0.707707 0.950491
vt 0.707707 0.945097
vt 0.696918 0.945097
vt 0.696918 0.950491
vt 0.729284 0.950491
vt 0.729284 0.945097
vt 0.723890 0.945097
vt 0.723890 0.950491
vt 0.130015 0.630795
vt 0.734679 0.950491
vt 0.734679 0.945097
vt 0.114199 0.630795
vt 0.691524 0.945097
vt 0.691524 0.950491
vt 0.713101 0.945097
vt 0.713101 0.950491
vt 0.106291 0.630795
vt 0.740073 0.950491
vt 0.740073 0.945097
vt 0.745467 0.950491
vt 0.745467 0.945097
vt 0.282199 0.410923
vt 0.282199 0.422061
vt 0.259923 0.433199
vt 0.282199 0.433199
vt 0.098383 0.630795
vt 0.098383 0.638703
vt 0.145831 0.575439
vt 0.145831 0.583347
vt 0.130015 0.575439
vt 0.145831 0.614979
vt 0.326751 0.410923
vt 0.304475 0.410923
vt 0.304475 0.422061
vt 0.326751 0.422061
vt 0.304475 0.433199
vt 0.326751 0.433199
vt 0.326751 0.388647
vt 0.304475 0.388647
vt 0.326751 0.344095
vt 0.304475 0.344095
vt 0.304475 0.366371
vt 0.326751 0.366371
vt 0.145831 0.599163
vt 0.237646 0.344095
vt 0.237646 0.366371
vt 0.237646 0.388647
vt 0.248785 0.388647
vt 0.237646 0.410923
vt 0.237646 0.422061
vt 0.106291 0.599163
vt 0.248785 0.433199
vt 0.106291 0.614979
vn -1.0000 0.0000 0.0000
vn -0.0000 0.0000 1.0000
vn 1.0000 0.0000 -0.0000
vn 0.0000 -1.0000 0.0000
vn 0.0000 0.0000 -1.0000
vn 0.0000 1.0000 0.0000
usemtl None
s off
f 25/1/1 28/2/1 27/3/1 24/4/1
f 26/5/1 29/6/1 28/2/1 25/1/1
f 28/2/1 31/7/1 30/8/1 27/3/1
f 5/9/1 27/10/1 30/11/1 4/12/1
f 2/13/1 20/14/1 21/15/1 7/16/1
f 20/17/1 19/18/1 22/19/1 21/20/1
f 19/18/1 8/21/1 23/22/1 22/19/1
f 31/7/1 32/23/1 9/24/1 10/25/1
f 30/8/1 31/7/1 10/25/1 11/26/1
f 4/12/1 30/11/1 11/27/1 1/28/1
f 6/29/1 24/30/1 27/10/1 5/9/1
f 7/16/1 21/15/1 24/30/1 6/29/1
f 34/31/2 37/32/2 36/33/2 33/34/2
f 37/32/2 40/35/2 39/36/2 36/33/2
f 38/37/2 41/38/2 40/35/2 37/32/2
f 40/35/2 52/39/2 53/40/2 39/36/2
f 16/41/2 39/42/2 53/43/2 54/44/2
f 3/45/2 14/46/2 33/47/2 18/48/2
f 14/49/2 13/50/2 34/31/2 33/34/2
f 13/50/2 12/51/2 35/52/2 34/31/2
f 62/53/3 61/54/3 64/55/3 65/56/3
f 60/57/3 59/58/3 62/53/3 63/59/3
f 59/58/3 58/60/3 61/54/3 62/53/3
f 17/61/2 36/62/2 39/42/2 16/41/2
f 18/48/2 33/47/2 36/62/2 17/61/2
f 22/19/1 25/1/1 24/4/1 21/20/1
f 102/63/4 43/64/4 71/65/4 100/66/4
f 75/67/5 101/68/5 88/69/5 77/70/5
f 73/71/5 81/72/5 101/68/5 75/67/5
f 52/73/3 56/74/3 57/75/3 67/76/3
f 65/56/3 50/77/3 49/78/3 66/79/3
f 64/55/3 51/80/3 50/77/3 65/56/3
f 96/81/6 82/82/6 83/83/6 94/84/6
f 100/66/4 71/65/4 80/85/4 95/86/4
f 101/87/6 81/88/6 82/82/6 96/81/6
f 56/89/3 55/90/3 58/60/3 59/58/3
f 9/91/5 49/92/5 50/93/5 10/94/5
f 7/16/4 48/95/4 54/44/4 2/13/4
f 29/96/5 63/97/5 62/98/5 28/99/5
f 10/94/5 50/93/5 51/100/5 11/101/5
f 22/102/6 56/103/6 59/104/6 25/105/6
f 19/106/2 52/39/2 67/107/2 8/108/2
f 11/109/5 51/110/5 44/111/5 1/28/5
f 28/99/6 62/98/6 65/112/6 31/113/6
f 25/105/2 59/104/2 60/114/2 26/115/2
f 1/28/4 44/111/4 45/116/4 4/12/4
f 20/117/2 53/40/2 52/39/2 19/106/2
f 4/12/4 45/116/4 46/118/4 5/9/4
f 2/13/2 54/44/2 53/43/2 20/119/2
f 31/113/2 65/112/2 66/120/2 32/121/2
f 5/9/4 46/118/4 47/122/4 6/29/4
f 8/123/6 67/76/6 57/75/6 23/124/6
f 26/115/6 60/114/6 63/97/6 29/96/6
f 6/29/4 47/122/4 48/95/4 7/16/4
f 23/125/5 57/126/5 56/103/5 22/102/5
f 32/121/6 66/120/6 49/92/6 9/91/6
f 76/127/5 75/67/5 77/70/5 78/128/5
f 77/70/5 88/69/5 55/129/5 56/130/5
f 84/131/6 110/132/6 111/133/6 15/134/6
f 104/135/5 81/72/5 73/71/5 69/136/5
f 69/136/5 73/71/5 74/137/5 68/138/5
f 81/88/6 104/139/6 106/140/6 82/82/6
f 42/141/4 112/142/4 109/143/4 43/64/4
f 54/44/4 48/95/4 72/144/4 16/41/4
f 38/145/6 76/146/6 78/147/6 41/148/6
f 35/149/1 74/150/1 73/151/1 34/152/1
f 16/41/4 72/144/4 99/153/4 17/61/4
f 12/154/6 68/155/6 74/150/6 35/149/6
f 17/61/4 99/153/4 79/156/4 18/48/4
f 41/148/1 78/147/1 77/157/1 40/158/1
f 34/152/6 73/151/6 75/159/6 37/160/6
f 18/48/4 79/156/4 70/161/4 3/45/4
f 13/162/3 69/163/3 68/155/3 12/154/3
f 40/158/6 77/157/6 56/74/6 52/73/6
f 14/164/3 104/165/3 69/163/3 13/162/3
f 37/160/3 75/159/3 76/146/3 38/145/3
f 94/84/6 83/83/6 84/131/6 98/166/6
f 103/167/5 15/134/5 42/168/5 97/169/5
f 3/45/3 70/161/3 104/170/3 14/171/3
f 98/166/6 84/131/6 15/134/6 103/167/6
f 95/86/4 80/85/4 79/156/4 99/153/4
f 44/111/4 91/172/4 90/173/4 45/116/4
f 97/174/4 42/141/4 43/64/4 102/63/4
f 47/122/4 87/175/4 72/144/4 48/95/4
f 64/176/6 93/177/6 92/178/6 51/179/6
f 51/179/5 92/178/5 91/180/5 44/181/5
f 61/182/6 85/183/6 93/177/6 64/176/6
f 55/184/6 88/185/6 89/186/6 58/187/6
f 46/118/4 86/188/4 87/175/4 47/122/4
f 58/187/6 89/186/6 85/183/6 61/182/6
f 45/116/4 90/173/4 86/188/4 46/118/4
f 91/172/4 97/174/4 102/63/4 90/173/4
f 87/175/4 95/86/4 99/153/4 72/144/4
f 93/177/6 98/166/6 103/167/6 92/178/6
f 92/178/5 103/167/5 97/169/5 91/180/5
f 85/183/6 94/84/6 98/166/6 93/177/6
f 88/185/6 101/87/6 96/81/6 89/186/6
f 86/188/4 100/66/4 95/86/4 87/175/4
f 89/186/6 96/81/6 94/84/6 85/183/6
f 90/173/4 102/63/4 100/66/4 86/188/4
f 70/189/3 105/190/3 106/140/3 104/139/3
f 105/190/3 107/191/3 108/192/3 106/140/3
f 109/193/3 112/194/3 111/133/3 110/132/3
f 107/191/3 109/193/3 110/132/3 108/192/3
f 43/64/4 109/143/4 107/195/4 71/65/4
f 15/134/5 111/133/5 112/196/5 42/168/5
f 83/83/6 108/192/6 110/132/6 84/131/6
f 71/65/4 107/195/4 105/197/4 80/85/4
f 82/82/6 106/140/6 108/192/6 83/83/6
f 80/85/4 105/197/4 70/161/4 79/156/4
