# Blender v2.80 (sub 41) OBJ File: ''
# www.blender.org
mtllib goal.mtl
o Cube_Cube.002
v -0.500000 -0.500000 0.500000
v -0.500000 0.500000 0.500000
v -0.500000 -0.500000 -0.500000
v -0.500000 0.500000 -0.500000
v 0.500000 -0.500000 0.500000
v 0.500000 0.500000 0.500000
v 0.500000 -0.500000 -0.500000
v 0.500000 0.500000 -0.500000
vt 0.032269 0.750896
vt 0.073218 0.750896
vt 0.073218 0.791846
vt 0.032269 0.791846
vt 0.345908 0.723756
vt 0.475317 0.723756
vt 0.475317 0.853165
vt 0.345908 0.853165
vt 0.227818 0.574633
vt 0.260242 0.574633
vt 0.260242 0.607057
vt 0.227818 0.607057
vt 0.260242 0.639481
vt 0.227818 0.639481
vt 0.195393 0.574633
vt 0.195393 0.607057
vt 0.292666 0.574633
vt 0.292666 0.607057
vn -1.0000 0.0000 0.0000
vn 0.0000 0.0000 -1.0000
vn 1.0000 0.0000 0.0000
vn 0.0000 0.0000 1.0000
vn 0.0000 -1.0000 0.0000
vn 0.0000 1.0000 0.0000
usemtl None
s off
f 1/1/1 2/2/1 4/3/1 3/4/1
f 3/5/2 4/6/2 8/7/2 7/8/2
f 7/9/3 8/10/3 6/11/3 5/12/3
f 5/12/4 6/11/4 2/13/4 1/14/4
f 3/15/5 7/9/5 5/12/5 1/16/5
f 8/10/6 4/17/6 2/18/6 6/11/6
