# Blender v2.80 (sub 41) OBJ File: 'stairs.blend'
# www.blender.org
mtllib linker_T.mtl
o Cube.009_Cube.000
v 0.500000 -0.500000 0.125000
v 0.500000 -0.500000 0.375000
v 0.500000 -0.375000 0.375000
v 0.500000 -0.375000 0.125000
v 0.500000 -0.500000 -0.500000
v 0.500000 -0.500000 -0.375000
v 0.500000 -0.375000 -0.375000
v 0.500000 -0.375000 -0.500000
v 0.500000 -0.250000 -0.375000
v 0.500000 -0.250000 -0.500000
v 0.500000 -0.125000 -0.375000
v 0.500000 -0.125000 -0.500000
v 0.500000 -0.250000 0.375000
v 0.500000 -0.250000 0.500000
v 0.500000 -0.125000 0.500000
v 0.500000 -0.125000 0.375000
v 0.500000 -0.375000 0.500000
v 0.500000 -0.500000 0.500000
v 0.500000 -0.500000 -0.125000
v 0.500000 -0.375000 -0.125000
v -0.375000 -0.250000 -0.500000
v -0.375000 -0.375000 -0.500000
v -0.125000 -0.375000 -0.500000
v -0.125000 -0.250000 -0.500000
v 0.125000 -0.375000 -0.500000
v 0.125000 -0.250000 -0.500000
v -0.125000 -0.125000 -0.500000
v 0.125000 -0.125000 -0.500000
v 0.375000 -0.375000 -0.500000
v 0.375000 -0.250000 -0.500000
v 0.125000 -0.500000 -0.500000
v 0.375000 -0.500000 -0.500000
v -0.500000 -0.500000 -0.500000
v -0.375000 -0.500000 -0.500000
v -0.500000 -0.375000 -0.500000
v -0.500000 -0.250000 -0.500000
v -0.375000 -0.125000 -0.500000
v -0.500000 -0.125000 -0.500000
v -0.125000 -0.500000 -0.500000
v -0.125000 -0.500000 0.375000
v -0.125000 -0.500000 0.125000
v -0.375000 -0.500000 0.125000
v -0.375000 -0.500000 0.375000
v -0.125000 -0.250000 -0.375000
v 0.125000 -0.250000 -0.375000
v 0.125000 -0.375000 -0.375000
v -0.125000 -0.375000 -0.375000
v -0.375000 -0.250000 -0.375000
v -0.375000 -0.375000 -0.375000
v 0.375000 -0.125000 -0.500000
v 0.375000 -0.125000 -0.375000
v 0.375000 -0.250000 -0.375000
v 0.375000 -0.250000 0.375000
v 0.375000 -0.125000 0.375000
v 0.375000 -0.125000 0.500000
v 0.375000 -0.250000 0.500000
v 0.375000 -0.375000 0.375000
v 0.375000 -0.375000 0.500000
v -0.125000 -0.375000 -0.125000
v -0.125000 -0.375000 0.125000
v -0.375000 -0.375000 0.125000
v -0.375000 -0.375000 -0.125000
v -0.125000 -0.500000 -0.125000
v -0.375000 -0.500000 -0.125000
v 0.375000 -0.500000 -0.375000
v 0.375000 -0.375000 0.125000
v 0.375000 -0.500000 0.500000
v 0.375000 -0.375000 -0.125000
v 0.375000 -0.375000 -0.375000
v 0.375000 -0.500000 0.375000
v 0.375000 -0.500000 0.125000
v 0.375000 -0.500000 -0.125000
v -0.125000 -0.125000 -0.375000
v 0.125000 -0.125000 -0.375000
v -0.500000 -0.250000 0.500000
v -0.500000 -0.250000 0.375000
v -0.500000 -0.125000 0.375000
v -0.500000 -0.125000 0.500000
v -0.500000 -0.375000 -0.375000
v -0.500000 -0.250000 -0.375000
v -0.500000 -0.125000 -0.375000
v -0.375000 -0.125000 -0.375000
v -0.500000 -0.375000 -0.125000
v -0.375000 -0.500000 0.500000
v -0.500000 -0.500000 0.375000
v -0.500000 -0.500000 0.500000
v 0.125000 -0.500000 -0.375000
v -0.125000 -0.500000 -0.375000
v -0.375000 -0.500000 -0.375000
v -0.500000 -0.500000 -0.375000
v -0.125000 -0.375000 0.375000
v -0.375000 -0.375000 0.375000
v -0.125000 -0.375000 0.500000
v -0.125000 -0.500000 0.500000
v -0.375000 -0.375000 0.500000
v 0.125000 -0.500000 0.375000
v 0.125000 -0.500000 0.500000
v 0.125000 -0.500000 -0.125000
v 0.125000 -0.375000 0.500000
v 0.125000 -0.375000 0.375000
v 0.125000 -0.375000 0.125000
v 0.125000 -0.375000 -0.125000
v 0.125000 -0.500000 0.125000
v -0.500000 -0.500000 -0.125000
v -0.500000 -0.375000 0.125000
v -0.500000 -0.500000 0.125000
v -0.500000 -0.375000 0.375000
v -0.500000 -0.375000 0.500000
v -0.375000 -0.125000 0.375000
v -0.375000 -0.125000 0.500000
v -0.375000 -0.250000 0.375000
v -0.375000 -0.250000 0.500000
vt 0.165036 0.316533
vt 0.165036 0.305395
vt 0.187312 0.305395
vt 0.187312 0.316533
vt 0.252058 0.722012
vt 0.252058 0.729920
vt 0.244150 0.729920
vt 0.244150 0.722012
vt 0.897412 0.821491
vt 0.892018 0.821491
vt 0.892018 0.816097
vt 0.897412 0.816097
vt 0.886623 0.821491
vt 0.886623 0.816097
vt 0.786454 0.831583
vt 0.790269 0.835398
vt 0.786454 0.839212
vt 0.782640 0.835398
vt 0.782640 0.827769
vt 0.778826 0.831583
vt 0.196702 0.722012
vt 0.196702 0.729920
vt 0.188794 0.729920
vt 0.188794 0.722012
vt 0.142760 0.316533
vt 0.142760 0.305395
vt 0.120483 0.316533
vt 0.120483 0.305395
vt 0.847850 0.841564
vt 0.847850 0.852353
vt 0.842456 0.852353
vt 0.842456 0.841564
vt 0.847850 0.863141
vt 0.842456 0.863141
vt 0.853244 0.852353
vt 0.853244 0.863141
vt 0.847850 0.873930
vt 0.842456 0.873930
vt 0.252058 0.698288
vt 0.259966 0.698288
vt 0.259966 0.714104
vt 0.252058 0.714104
vt 0.252058 0.658748
vt 0.259966 0.658748
vt 0.259966 0.666656
vt 0.252058 0.666656
vt 0.842456 0.836169
vt 0.847850 0.836169
vt 0.853244 0.836169
vt 0.853244 0.841564
vt 0.252058 0.682472
vt 0.259966 0.682472
vt 0.196702 0.682472
vt 0.196702 0.666656
vt 0.212518 0.666656
vt 0.212518 0.682472
vt 0.773655 0.948940
vt 0.773655 0.943546
vt 0.784444 0.943546
vt 0.784444 0.948940
vt 0.762866 0.948940
vt 0.762866 0.943546
vt 0.875835 0.821491
vt 0.875835 0.816097
vt 0.881229 0.816097
vt 0.881229 0.821491
vt 0.797898 0.843026
vt 0.794083 0.846841
vt 0.790269 0.843026
vt 0.794083 0.839212
vt 0.801712 0.846841
vt 0.797898 0.850655
vt 0.142760 0.249705
vt 0.142760 0.227429
vt 0.165036 0.227429
vt 0.165036 0.249705
vt 0.228334 0.666656
vt 0.228334 0.682472
vt 0.120483 0.249705
vt 0.120483 0.227429
vt 0.786454 0.846841
vt 0.782640 0.843026
vt 0.244150 0.714104
vt 0.794083 0.831583
vt 0.797898 0.827769
vt 0.801712 0.831583
vt 0.797898 0.835398
vt 0.782640 0.850655
vt 0.778826 0.846841
vt 0.165036 0.294257
vt 0.187312 0.294257
vt 0.847850 0.879324
vt 0.853244 0.873930
vt 0.853244 0.879324
vt 0.180886 0.722012
vt 0.180886 0.714104
vt 0.188794 0.714104
vt 0.142760 0.294257
vt 0.120483 0.294257
vt 0.196702 0.714104
vt 0.842456 0.879324
vt 0.212518 0.714104
vt 0.212518 0.722012
vt 0.259966 0.722012
vt 0.228334 0.714104
vt 0.228334 0.722012
vt 0.800627 0.948940
vt 0.795233 0.948940
vt 0.795233 0.943546
vt 0.800627 0.943546
vt 0.800627 0.954335
vt 0.795233 0.954335
vt 0.773655 0.954335
vt 0.784444 0.954335
vt 0.794083 0.871126
vt 0.790269 0.867311
vt 0.794083 0.863497
vt 0.797898 0.867311
vt 0.757472 0.943546
vt 0.757472 0.948940
vt 0.762866 0.954335
vt 0.757472 0.954335
vt 0.120483 0.216291
vt 0.142760 0.216291
vt 0.188794 0.666656
vt 0.188794 0.658748
vt 0.196702 0.658748
vt 0.244150 0.698288
vt 0.848863 0.821491
vt 0.848863 0.816097
vt 0.859652 0.816097
vt 0.859652 0.821491
vt 0.827286 0.821491
vt 0.827286 0.816097
vt 0.832680 0.816097
vt 0.832680 0.821491
vt 0.244150 0.682472
vt 0.821891 0.821491
vt 0.821891 0.816097
vt 0.244150 0.666656
vt 0.865046 0.816097
vt 0.865046 0.821491
vt 0.843469 0.816097
vt 0.843469 0.821491
vt 0.244150 0.658748
vt 0.816497 0.821491
vt 0.816497 0.816097
vt 0.811102 0.821491
vt 0.811102 0.816097
vt 0.187312 0.227429
vt 0.187312 0.249705
vt 0.198450 0.249705
vt 0.198450 0.227429
vt 0.209588 0.227429
vt 0.209588 0.249705
vt 0.244150 0.650840
vt 0.252058 0.650840
vt 0.188794 0.698288
vt 0.196702 0.698288
vt 0.188794 0.682472
vt 0.228334 0.698288
vt 0.187312 0.271981
vt 0.198450 0.271981
vt 0.198450 0.294257
vt 0.209588 0.271981
vt 0.209588 0.294257
vt 0.165036 0.271981
vt 0.120483 0.271981
vt 0.142760 0.271981
vt 0.212518 0.698288
vt 0.120483 0.205153
vt 0.142760 0.205153
vt 0.165036 0.205153
vt 0.165036 0.216291
vt 0.188794 0.650840
vt 0.196702 0.650840
vt 0.187312 0.205153
vt 0.187312 0.216291
vt 0.212518 0.658748
vt 0.180886 0.666656
vt 0.180886 0.658748
vt 0.228334 0.658748
vt 0.790269 0.859682
vt 0.786454 0.863497
vt 0.786454 0.855868
vt 0.782640 0.859682
vt 0.782640 0.867311
vt 0.786454 0.871126
vt 0.797898 0.859682
vt 0.794083 0.855868
vt 0.801712 0.855868
vt 0.797898 0.852054
vt 0.778826 0.871126
vt 0.782640 0.874940
vt 0.782640 0.852054
vt 0.778826 0.855868
vt 0.797898 0.874940
vt 0.801712 0.871126
vn 1.0000 0.0000 0.0000
vn 0.0000 0.0000 -1.0000
vn 0.0000 -1.0000 -0.0000
vn 0.0000 -0.0000 1.0000
vn -1.0000 0.0000 0.0000
vn 0.0000 1.0000 0.0000
usemtl None.003
s off
f 1/1/1 4/2/1 3/3/1 2/4/1
f 5/5/1 8/6/1 7/7/1 6/8/1
f 8/9/1 10/10/1 9/11/1 7/12/1
f 10/10/1 12/13/1 11/14/1 9/11/1
f 13/15/1 16/16/1 15/17/1 14/18/1
f 3/19/1 13/15/1 14/18/1 17/20/1
f 2/21/1 3/22/1 17/23/1 18/24/1
f 19/25/1 20/26/1 4/2/1 1/1/1
f 6/27/1 7/28/1 20/26/1 19/25/1
f 21/29/2 24/30/2 23/31/2 22/32/2
f 24/30/2 26/33/2 25/34/2 23/31/2
f 27/35/2 28/36/2 26/33/2 24/30/2
f 26/33/2 30/37/2 29/38/2 25/34/2
f 31/39/2 25/40/2 29/41/2 32/42/2
f 33/43/2 35/44/2 22/45/2 34/46/2
f 35/47/2 36/48/2 21/29/2 22/32/2
f 36/48/2 38/49/2 37/50/2 21/29/2
f 39/51/2 23/52/2 25/40/2 31/39/2
f 34/46/2 22/45/2 23/52/2 39/51/2
f 40/53/3 43/54/3 42/55/3 41/56/3
f 44/57/4 47/58/4 46/59/4 45/60/4
f 48/61/4 49/62/4 47/58/4 44/57/4
f 30/63/5 52/64/5 51/65/5 50/66/5
f 53/67/5 56/68/5 55/69/5 54/70/5
f 57/71/5 58/72/5 56/68/5 53/67/5
f 59/73/6 62/74/6 61/75/6 60/76/6
f 41/56/3 42/55/3 64/77/3 63/78/3
f 47/79/6 49/80/6 62/74/6 59/73/6
f 15/17/4 55/69/4 56/81/4 14/82/4
f 6/8/3 65/83/3 32/42/3 5/5/3
f 13/84/2 3/85/2 57/86/2 53/87/2
f 14/82/4 56/81/4 58/88/4 17/89/4
f 3/3/6 4/2/6 66/90/6 57/91/6
f 10/92/2 30/37/2 50/93/2 12/94/2
f 17/95/4 58/96/4 67/97/4 18/24/4
f 4/2/6 20/26/6 68/98/6 66/90/6
f 20/26/6 7/28/6 69/99/6 68/98/6
f 18/24/3 67/97/3 70/100/3 2/21/3
f 8/101/2 29/38/2 30/37/2 10/92/2
f 2/21/3 70/100/3 71/102/3 1/103/3
f 5/5/2 32/42/2 29/41/2 8/104/2
f 13/84/2 53/87/2 54/70/2 16/16/2
f 1/103/3 71/102/3 72/105/3 19/106/3
f 12/13/6 50/66/6 51/65/6 11/14/6
f 9/107/4 52/108/4 69/109/4 7/110/4
f 19/106/3 72/105/3 65/83/3 6/8/3
f 11/111/4 51/112/4 52/108/4 9/107/4
f 16/16/6 54/70/6 55/69/6 15/17/6
f 73/113/4 44/57/4 45/60/4 74/114/4
f 45/60/4 46/59/4 69/109/4 52/108/4
f 75/115/5 78/116/5 77/117/5 76/118/5
f 79/119/4 49/62/4 48/61/4 80/120/4
f 80/120/4 48/61/4 82/121/4 81/122/4
f 49/80/6 79/123/6 83/124/6 62/74/6
f 84/125/3 86/126/3 85/127/3 43/54/3
f 32/42/3 65/83/3 87/128/3 31/39/3
f 27/129/6 73/130/6 74/131/6 28/132/6
f 37/133/1 82/134/1 48/135/1 21/136/1
f 31/39/3 87/128/3 88/137/3 39/51/3
f 38/138/6 81/139/6 82/134/6 37/133/6
f 39/51/3 88/137/3 89/140/3 34/46/3
f 28/132/1 74/131/1 45/141/1 26/142/1
f 21/136/6 48/135/6 44/143/6 24/144/6
f 34/46/3 89/140/3 90/145/3 33/43/3
f 36/146/5 80/147/5 81/139/5 38/138/5
f 26/142/6 45/141/6 52/64/6 30/63/6
f 35/148/5 79/149/5 80/147/5 36/146/5
f 24/144/5 44/143/5 73/130/5 27/129/5
f 60/76/6 61/75/6 92/150/6 91/151/6
f 93/152/4 95/153/4 84/154/4 94/155/4
f 33/43/5 90/145/5 79/156/5 35/157/5
f 91/151/6 92/150/6 95/153/6 93/152/6
f 63/78/3 64/77/3 89/140/3 88/137/3
f 67/97/3 97/158/3 96/159/3 70/100/3
f 94/160/3 84/125/3 43/54/3 40/53/3
f 72/105/3 98/161/3 87/128/3 65/83/3
f 57/91/6 100/162/6 99/163/6 58/164/6
f 58/164/4 99/163/4 97/165/4 67/166/4
f 66/90/6 101/167/6 100/162/6 57/91/6
f 69/99/6 46/168/6 102/169/6 68/98/6
f 71/102/3 103/170/3 98/161/3 72/105/3
f 68/98/6 102/169/6 101/167/6 66/90/6
f 70/100/3 96/159/3 103/170/3 71/102/3
f 97/158/3 94/160/3 40/53/3 96/159/3
f 98/161/3 63/78/3 88/137/3 87/128/3
f 100/162/6 91/151/6 93/152/6 99/163/6
f 99/163/4 93/152/4 94/155/4 97/165/4
f 101/167/6 60/76/6 91/151/6 100/162/6
f 46/168/6 47/79/6 59/73/6 102/169/6
f 103/170/3 41/56/3 63/78/3 98/161/3
f 102/169/6 59/73/6 60/76/6 101/167/6
f 96/159/3 40/53/3 41/56/3 103/170/3
f 90/171/5 104/172/5 83/124/5 79/123/5
f 104/172/5 106/173/5 105/174/5 83/124/5
f 85/127/5 86/126/5 108/175/5 107/176/5
f 106/173/5 85/177/5 107/178/5 105/174/5
f 43/54/3 85/127/3 106/179/3 42/55/3
f 95/180/4 108/181/4 86/126/4 84/125/4
f 61/75/6 105/174/6 107/178/6 92/150/6
f 42/55/3 106/179/3 104/182/3 64/77/3
f 62/74/6 83/124/6 105/174/6 61/75/6
f 64/77/3 104/182/3 90/145/3 89/140/3
f 109/183/6 77/117/6 78/116/6 110/184/6
f 111/185/1 109/183/1 110/184/1 112/186/1
f 112/187/4 110/184/4 78/116/4 75/188/4
f 76/189/2 77/117/2 109/183/2 111/190/2
f 107/191/2 76/189/2 111/190/2 92/192/2
f 95/193/4 112/187/4 75/188/4 108/194/4
f 92/195/1 111/185/1 112/186/1 95/196/1
f 108/197/5 75/115/5 76/118/5 107/198/5
