# Blender v2.80 (sub 41) OBJ File: 'stairs.blend'
# www.blender.org
mtllib road_T.mtl
o Cube.012
v -0.500000 -0.500000 0.500000
v -0.500000 -0.375000 0.500000
v -0.500000 -0.500000 -0.500000
v -0.500000 -0.375000 -0.500000
v 0.500000 -0.500000 0.500000
v 0.500000 -0.375000 0.500000
v 0.500000 -0.500000 -0.500000
v 0.500000 -0.375000 -0.500000
v 0.250000 -0.350000 -0.250000
v -0.250000 -0.350000 -0.250000
v -0.500000 -0.350000 -0.250000
v -0.500000 -0.350000 0.250000
v 0.250000 -0.375000 -0.500000
v 0.250000 -0.500000 0.500000
v 0.250000 -0.500000 -0.500000
v 0.250000 -0.375000 0.500000
v -0.250000 -0.500000 -0.500000
v -0.250000 -0.375000 0.500000
v -0.250000 -0.375000 -0.500000
v -0.250000 -0.500000 0.500000
v -0.250000 -0.350000 0.250000
v -0.250000 -0.350000 0.500000
v 0.250000 -0.350000 0.500000
v 0.250000 -0.350000 0.250000
v -0.500000 -0.375000 -0.250000
v 0.500000 -0.500000 -0.250000
v -0.250000 -0.375000 -0.250000
v -0.250000 -0.500000 -0.250000
v 0.250000 -0.500000 -0.250000
v 0.250000 -0.375000 -0.250000
v 0.500000 -0.375000 -0.250000
v -0.500000 -0.500000 -0.250000
v -0.500000 -0.500000 0.250000
v 0.500000 -0.375000 0.250000
v 0.500000 -0.500000 0.250000
v -0.500000 -0.375000 0.250000
v 0.250000 -0.375000 0.250000
v 0.250000 -0.500000 0.250000
v -0.250000 -0.500000 0.250000
v -0.250000 -0.375000 0.250000
v 0.500000 -0.350000 -0.250000
v 0.500000 -0.350000 0.250000
vt 0.532905 0.141618
vt 0.547798 0.141618
vt 0.547798 0.171403
vt 0.532905 0.171403
vt 0.637152 0.186295
vt 0.637152 0.171403
vt 0.666937 0.171403
vt 0.666937 0.186295
vt 0.681829 0.082048
vt 0.666937 0.082048
vt 0.666937 0.052264
vt 0.681829 0.052264
vt 0.577583 0.037371
vt 0.577583 0.052264
vt 0.547798 0.052264
vt 0.547798 0.037371
vt 0.716550 0.282802
vt 0.716550 0.312587
vt 0.686765 0.312587
vt 0.686765 0.282802
vt 0.577583 0.082048
vt 0.547798 0.082048
vt 0.924847 0.471439
vt 0.924847 0.516489
vt 0.920342 0.516489
vt 0.920342 0.471439
vt 0.776119 0.223232
vt 0.716550 0.223232
vt 0.716550 0.193448
vt 0.776119 0.193448
vt 0.776119 0.282802
vt 0.666937 0.037371
vt 0.637152 0.052264
vt 0.637152 0.037371
vt 0.637152 0.082048
vt 0.965391 0.611092
vt 0.920342 0.611092
vt 0.920342 0.606587
vt 0.965391 0.606587
vt 0.547798 0.186295
vt 0.577583 0.171403
vt 0.577583 0.186295
vt 0.686765 0.223232
vt 0.686765 0.193448
vt 0.924847 0.606587
vt 0.924847 0.651636
vt 0.920342 0.651636
vt 0.776119 0.312587
vt 0.666937 0.141618
vt 0.681829 0.141618
vt 0.532905 0.082048
vt 0.830244 0.606587
vt 0.830244 0.651636
vt 0.681829 0.171403
vt 0.805904 0.282802
vt 0.805904 0.312587
vt 0.577583 0.141618
vt 0.637152 0.141618
vt 0.805904 0.223232
vt 0.805904 0.193448
vt 0.830244 0.516488
vt 0.830244 0.471439
vt 0.532906 0.052264
vt 0.920342 0.656141
vt 0.830244 0.656141
vt 0.830244 0.466934
vt 0.920342 0.466934
vt 0.825739 0.516488
vt 0.825739 0.471439
vt 0.969896 0.516489
vt 0.969896 0.606587
vt 0.965391 0.516489
vt 0.825739 0.606587
vt 0.825739 0.651636
vt 0.920342 0.511984
vt 0.965391 0.511984
vn -1.0000 0.0000 0.0000
vn -0.0000 0.0000 -1.0000
vn 1.0000 0.0000 -0.0000
vn 0.0000 0.0000 1.0000
vn 0.0000 -1.0000 0.0000
vn 0.0000 1.0000 0.0000
usemtl None
s off
f 32/1/1 25/2/1 4/3/1 3/4/1
f 15/5/2 13/6/2 8/7/2 7/8/2
f 35/9/3 34/10/3 6/11/3 5/12/3
f 20/13/4 18/14/4 2/15/4 1/16/4
f 38/17/5 35/18/5 5/19/5 14/20/5
f 40/21/6 36/22/6 2/15/6 18/14/6
f 36/23/4 40/24/4 21/25/4 12/26/4
f 28/27/5 39/28/5 33/29/5 32/30/5
f 29/31/5 38/17/5 39/28/5 28/27/5
f 5/32/4 6/11/4 16/33/4 14/34/4
f 34/10/6 37/35/6 16/33/6 6/11/6
f 14/34/4 16/33/4 18/14/4 20/13/4
f 16/36/3 37/37/3 24/38/3 23/39/3
f 3/40/2 4/3/2 19/41/2 17/42/2
f 33/29/5 39/28/5 20/43/5 1/44/5
f 39/28/5 38/17/5 14/20/5 20/43/5
f 17/42/2 19/41/2 13/6/2 15/5/2
f 37/45/4 34/46/4 42/47/4 24/38/4
f 35/18/5 38/17/5 29/31/5 26/48/5
f 31/49/3 34/10/3 35/9/3 26/50/3
f 36/22/1 25/2/1 32/1/1 33/51/1
f 9/52/6 24/38/6 42/47/6 41/53/6
f 7/54/3 8/7/3 31/49/3 26/50/3
f 15/55/5 7/56/5 26/48/5 29/31/5
f 19/41/6 4/3/6 25/2/6 27/57/6
f 8/7/6 13/6/6 30/58/6 31/49/6
f 19/41/6 27/57/6 30/58/6 13/6/6
f 17/59/5 15/55/5 29/31/5 28/27/5
f 3/60/5 17/59/5 28/27/5 32/30/5
f 12/26/6 21/25/6 10/61/6 11/62/6
f 1/63/1 2/15/1 36/22/1 33/51/1
f 34/64/3 31/65/3 41/53/3 42/47/3
f 25/66/1 36/67/1 12/26/1 11/62/1
f 27/68/2 25/69/2 11/62/2 10/61/2
f 18/70/4 16/71/4 23/39/4 22/72/4
f 30/73/2 27/68/2 10/61/2 9/52/2
f 10/61/6 21/25/6 24/38/6 9/52/6
f 21/25/6 22/72/6 23/39/6 24/38/6
f 31/74/2 30/73/2 9/52/2 41/53/2
f 40/75/1 18/76/1 22/72/1 21/25/1
