# Blender v2.80 (sub 41) OBJ File: 'stairs.blend'
# www.blender.org
mtllib road.mtl
o Cube.010_Cube.009
v -0.500000 -0.500000 0.500000
v -0.500000 -0.375000 0.500000
v -0.500000 -0.500000 -0.500000
v -0.500000 -0.375000 -0.500000
v 0.500000 -0.500000 0.500000
v 0.500000 -0.375000 0.500000
v 0.500000 -0.500000 -0.500000
v 0.500000 -0.375000 -0.500000
v -0.250000 -0.350000 0.500000
v 0.250000 -0.350000 0.500000
v 0.250000 -0.350000 -0.500000
v -0.250000 -0.350000 -0.500000
v 0.250000 -0.375000 -0.500000
v 0.250000 -0.500000 0.500000
v 0.250000 -0.500000 -0.500000
v 0.250000 -0.375000 0.500000
v -0.250000 -0.500000 -0.500000
v -0.250000 -0.375000 0.500000
v -0.250000 -0.375000 -0.500000
v -0.250000 -0.500000 0.500000
vt 0.692075 0.041309
vt 0.706967 0.041309
vt 0.706967 0.160448
vt 0.692075 0.160448
vt 0.796321 0.175341
vt 0.796321 0.160448
vt 0.826106 0.160448
vt 0.826106 0.175341
vt 0.840998 0.160448
vt 0.826106 0.041309
vt 0.840998 0.041309
vt 0.736752 0.026417
vt 0.736752 0.041309
vt 0.706967 0.026417
vt 0.964152 0.135568
vt 0.964152 0.165353
vt 0.845013 0.165353
vt 0.845013 0.135568
vt 0.736752 0.160448
vt 0.531590 0.641938
vt 0.531590 0.461741
vt 0.536095 0.461741
vt 0.536095 0.641938
vt 0.630699 0.461741
vt 0.630699 0.641938
vt 0.626194 0.641938
vt 0.626194 0.461741
vt 0.536095 0.457236
vt 0.626194 0.457236
vt 0.826106 0.026417
vt 0.796321 0.041309
vt 0.796321 0.026417
vt 0.706967 0.175341
vt 0.736752 0.175341
vt 0.964152 0.046214
vt 0.964152 0.075999
vt 0.845013 0.075999
vt 0.845013 0.046214
vt 0.626194 0.646443
vt 0.536095 0.646443
vn -1.0000 0.0000 0.0000
vn 0.0000 0.0000 -1.0000
vn 1.0000 0.0000 0.0000
vn 0.0000 0.0000 1.0000
vn 0.0000 -1.0000 0.0000
vn 0.0000 1.0000 0.0000
usemtl None
s off
f 1/1/1 2/2/1 4/3/1 3/4/1
f 15/5/2 13/6/2 8/7/2 7/8/2
f 7/9/3 8/7/3 6/10/3 5/11/3
f 20/12/4 18/13/4 2/2/4 1/14/4
f 15/15/5 7/16/5 5/17/5 14/18/5
f 19/19/6 4/3/6 2/2/6 18/13/6
f 19/20/1 18/21/1 9/22/1 12/23/1
f 16/24/3 13/25/3 11/26/3 10/27/3
f 18/28/4 16/29/4 10/27/4 9/22/4
f 5/30/4 6/10/4 16/31/4 14/32/4
f 8/7/6 13/6/6 16/31/6 6/10/6
f 14/32/4 16/31/4 18/13/4 20/12/4
f 11/26/6 12/23/6 9/22/6 10/27/6
f 3/33/2 4/3/2 19/19/2 17/34/2
f 3/35/5 17/36/5 20/37/5 1/38/5
f 17/36/5 15/15/5 14/18/5 20/37/5
f 17/34/2 19/19/2 13/6/2 15/5/2
f 13/39/2 19/40/2 12/23/2 11/26/2
